<?xml version="1.0" standalone="no"?>
<!DOCTYPE svg PUBLIC "-//W3C//DTD SVG 20010904//EN"
 "http://www.w3.org/TR/2001/REC-SVG-20010904/DTD/svg10.dtd">
<svg version="1.0" xmlns="http://www.w3.org/2000/svg"
 width="700.000000pt" height="700.000000pt" viewBox="0 0 700.000000 700.000000"
 preserveAspectRatio="xMidYMid meet">
<metadata>
Created by potrace 1.11, written by Peter Selinger 2001-2013
</metadata>
<g transform="translate(0.000000,700.000000) scale(0.100000,-0.100000)"
fill="#000000" stroke="none">
<path d="M2548 6406 c-65 -18 -125 -62 -163 -121 -25 -37 -138 -365 -440
-1272 l-407 -1223 -502 0 c-568 0 -559 1 -645 -76 -69 -62 -95 -120 -95 -214
0 -94 26 -152 95 -214 87 -79 61 -76 778 -76 509 1 644 4 674 14 58 21 114 64
146 113 21 31 123 325 333 954 l303 909 741 -2224 c561 -1682 749 -2235 773
-2269 62 -91 185 -141 292 -118 68 15 141 62 179 115 21 30 140 372 440 1273
l412 1233 502 0 c568 0 559 -1 645 76 69 62 95 120 95 214 0 94 -26 152 -95
214 -87 78 -62 76 -773 76 -382 0 -645 -4 -666 -10 -59 -16 -128 -67 -160
-116 -19 -31 -132 -356 -330 -950 -166 -497 -303 -904 -305 -904 -2 0 -335
996 -740 2213 -556 1669 -745 2224 -770 2262 -39 61 -98 103 -167 122 -63 16
-88 16 -150 -1z"/>
</g>
</svg>
